# xmcd
#
# Track frame offsets:
#	150
#	16073
#	35790
#	52356
#	72577
#	96849
#	122147
#	145569
#	163523
#	183784
#	202795
#	232484
#
# Disc length: 3369 seconds
#
# Revision: 0
# Processed by: cddbd v1.5.2PL0 Copyright (c) Steve Scherf et al.
# Submitted via: audiograbber 1.83.01
#
DISCID=ab0d270c
DTITLE=Lazer Lloyd - Lazer Lloyd
DYEAR=2015
DGENRE=Blues
TTITLE0=Burning Thunder
TTITLE1=Suffering
TTITLE2=Rockin' In The Holy Land
TTITLE3=Never Give Up
TTITLE4=Out Of Time
TTITLE5=Broken Dreams
TTITLE6=Set My Soul Free
TTITLE7=(Sittin' On) The Dock Of The Bay
TTITLE8=Moroccan Women
TTITLE9=Love Yourself
TTITLE10=Time To Love
TTITLE11=Whole Heart
EXTD=
EXTT0=
EXTT1=
EXTT2=
EXTT3=
EXTT4=
EXTT5=
EXTT6=
EXTT7=
EXTT8=
EXTT9=
EXTT10=
EXTT11=
PLAYORDER=
